<svg width="162" height="18" viewBox="0 0 162 18" fill="none" xmlns="http://www.w3.org/2000/svg">
<path d="M0.898438 4.24219C0.638021 4.16406 0.481771 3.99479 0.429688 3.73438C0.364583 3.55208 0.384115 3.35677 0.488281 3.14844C0.592448 2.92708 0.755208 2.80339 0.976562 2.77734C2.23958 2.58203 3.5026 2.47786 4.76562 2.46484C6.04167 2.4388 7.31771 2.41927 8.59375 2.40625C8.84115 2.40625 9.02995 2.48438 9.16016 2.64062C9.29036 2.79688 9.35547 2.97266 9.35547 3.16797C9.35547 3.36328 9.29036 3.54557 9.16016 3.71484C9.02995 3.87109 8.84115 3.94922 8.59375 3.94922C7.57812 3.97526 6.55599 3.98828 5.52734 3.98828C4.4987 3.98828 3.47005 4.04036 2.44141 4.14453C2.46745 4.66536 2.5 5.1862 2.53906 5.70703C2.57812 6.21484 2.61719 6.72917 2.65625 7.25C3.64583 7.19792 4.62891 7.13281 5.60547 7.05469C6.59505 6.97656 7.58464 6.96354 8.57422 7.01562C8.82161 7.02865 9.01042 7.11979 9.14062 7.28906C9.27083 7.45833 9.33594 7.64062 9.33594 7.83594C9.33594 8.03125 9.27083 8.20703 9.14062 8.36328C9.01042 8.51953 8.82161 8.59115 8.57422 8.57812C7.59766 8.52604 6.6276 8.53906 5.66406 8.61719C4.71354 8.69531 3.75 8.76042 2.77344 8.8125C2.85156 9.75 2.92318 10.6875 2.98828 11.625C3.06641 12.5495 3.11849 13.4805 3.14453 14.418C3.60026 14.3138 4.0625 14.2161 4.53125 14.125C5 14.0208 5.46875 13.9427 5.9375 13.8906C6.40625 13.8255 6.875 13.793 7.34375 13.793C7.8125 13.793 8.28125 13.832 8.75 13.9102C8.95833 13.9492 9.11458 14.0729 9.21875 14.2812C9.32292 14.4896 9.34896 14.6849 9.29688 14.8672C9.23177 15.0885 9.10807 15.2448 8.92578 15.3359C8.74349 15.4271 8.54167 15.4531 8.32031 15.4141C7.90365 15.3359 7.48047 15.3099 7.05078 15.3359C6.62109 15.362 6.19792 15.4076 5.78125 15.4727C5.29948 15.5508 4.81771 15.6419 4.33594 15.7461C3.86719 15.8503 3.39844 15.9609 2.92969 16.0781C2.70833 16.1302 2.5 16.0911 2.30469 15.9609C2.1224 15.9349 1.95964 15.8633 1.81641 15.7461C1.67318 15.6289 1.60156 15.4531 1.60156 15.2188C1.57552 14.112 1.52344 13.0182 1.44531 11.9375C1.38021 10.8568 1.30208 9.76953 1.21094 8.67578C1.06771 8.53255 0.983073 8.35677 0.957031 8.14844C0.94401 7.92708 1.0026 7.73828 1.13281 7.58203C1.02865 6.47526 0.950521 5.36198 0.898438 4.24219ZM11.7773 11.6641C11.4388 11.4167 11.1979 11.1107 11.0547 10.7461C10.9115 10.3685 10.9049 9.97135 11.0352 9.55469C11.1654 9.17708 11.3672 8.83854 11.6406 8.53906C11.9141 8.23958 12.2266 7.9987 12.5781 7.81641C12.9688 7.60807 13.3854 7.44531 13.8281 7.32812C14.2708 7.21094 14.7201 7.14583 15.1758 7.13281C15.6315 7.11979 16.0807 7.16536 16.5234 7.26953C16.9792 7.36068 17.4089 7.51042 17.8125 7.71875C18.0339 7.83594 18.1576 7.99219 18.1836 8.1875C18.2096 8.38281 18.1706 8.5651 18.0664 8.73438C17.9753 8.90365 17.832 9.02734 17.6367 9.10547C17.4414 9.18359 17.2331 9.16406 17.0117 9.04688C16.6992 8.8776 16.3477 8.76693 15.957 8.71484C15.5664 8.66276 15.1693 8.66276 14.7656 8.71484C14.375 8.75391 14.0039 8.85156 13.6523 9.00781C13.3008 9.16406 13.0078 9.36589 12.7734 9.61328C12.7083 9.67839 12.6628 9.72396 12.6367 9.75C12.6237 9.77604 12.5977 9.83464 12.5586 9.92578L12.5195 10.1406C12.5586 10.2578 12.5911 10.3294 12.6172 10.3555C12.8776 10.5247 13.1445 10.6354 13.418 10.6875C13.7044 10.7266 13.9909 10.7526 14.2773 10.7656C14.681 10.7917 15.0911 10.8177 15.5078 10.8438C15.9375 10.8568 16.3477 10.9089 16.7383 11C17.1419 11.0911 17.513 11.2409 17.8516 11.4492C18.1901 11.6576 18.4766 11.9635 18.7109 12.3672C18.9714 12.8229 19.0885 13.2982 19.0625 13.793C19.0495 14.2747 18.8607 14.7109 18.4961 15.1016C18.1315 15.4922 17.7083 15.7656 17.2266 15.9219C16.7448 16.0651 16.2565 16.1693 15.7617 16.2344C15.319 16.2865 14.8568 16.2995 14.375 16.2734C13.9062 16.2474 13.4505 16.1693 13.0078 16.0391C12.5781 15.9219 12.1745 15.7396 11.7969 15.4922C11.4193 15.2318 11.1068 14.8932 10.8594 14.4766C10.7422 14.2682 10.7227 14.0729 10.8008 13.8906C10.8789 13.6953 10.9961 13.5521 11.1523 13.4609C11.3216 13.3568 11.5039 13.3177 11.6992 13.3438C11.9076 13.3698 12.0768 13.487 12.207 13.6953C12.3893 13.9948 12.6432 14.2227 12.9688 14.3789C13.2943 14.5352 13.6458 14.6458 14.0234 14.7109C14.4141 14.763 14.8047 14.776 15.1953 14.75C15.5859 14.7109 15.9375 14.6589 16.25 14.5938C16.4193 14.5547 16.5885 14.5026 16.7578 14.4375C16.9401 14.3594 17.0898 14.2682 17.207 14.1641C17.3372 14.0599 17.4284 13.9427 17.4805 13.8125C17.5326 13.6693 17.526 13.513 17.4609 13.3438C17.3307 13.0182 17.1094 12.7839 16.7969 12.6406C16.4974 12.4974 16.1784 12.4128 15.8398 12.3867C15.5013 12.3607 15.1562 12.3477 14.8047 12.3477C14.4531 12.3477 14.1016 12.3346 13.75 12.3086C13.3984 12.2695 13.0534 12.2044 12.7148 12.1133C12.3763 12.0221 12.0638 11.8724 11.7773 11.6641ZM26.4844 9.18359C26.7318 9.18359 26.9141 9.26172 27.0312 9.41797C27.1615 9.57422 27.2266 9.75 27.2266 9.94531C27.2266 10.1406 27.1615 10.3229 27.0312 10.4922C26.9141 10.6484 26.7318 10.7266 26.4844 10.7266C26.1719 10.7396 25.8594 10.7396 25.5469 10.7266C25.2474 10.7005 24.9479 10.6745 24.6484 10.6484C24.6615 11.6771 24.6419 12.7057 24.5898 13.7344C24.5508 14.763 24.4466 15.7852 24.2773 16.8008C24.2513 17.0221 24.1341 17.1849 23.9258 17.2891C23.7174 17.3932 23.5156 17.4128 23.3203 17.3477C23.099 17.2826 22.9427 17.1589 22.8516 16.9766C22.7734 16.8073 22.7539 16.612 22.793 16.3906C22.9492 15.401 23.0339 14.4115 23.0469 13.4219C23.0729 12.4323 23.0729 11.4362 23.0469 10.4336C22.5521 10.3555 22.0508 10.2773 21.543 10.1992C21.0352 10.1081 20.5339 10.0299 20.0391 9.96484C19.8177 9.9388 19.6615 9.82161 19.5703 9.61328C19.4661 9.39193 19.4401 9.1901 19.4922 9.00781C19.5573 8.78646 19.681 8.63672 19.8633 8.55859C20.0456 8.46745 20.2409 8.4349 20.4492 8.46094C20.8789 8.52604 21.3086 8.59766 21.7383 8.67578C22.168 8.74089 22.6042 8.80599 23.0469 8.87109C23.0339 8.80599 23.0273 8.70833 23.0273 8.57812C23.0273 7.40625 23.0208 6.2474 23.0078 5.10156C23.0078 3.95573 23.0664 2.79688 23.1836 1.625C23.2096 1.41667 23.2878 1.23438 23.418 1.07812C23.5612 0.921875 23.7435 0.84375 23.9648 0.84375C24.1602 0.84375 24.3424 0.921875 24.5117 1.07812C24.694 1.23438 24.7721 1.41667 24.7461 1.625C24.6159 2.875 24.5508 4.11849 24.5508 5.35547C24.5638 6.57943 24.5833 7.82292 24.6094 9.08594C24.9219 9.11198 25.2344 9.13802 25.5469 9.16406C25.8594 9.17708 26.1719 9.18359 26.4844 9.18359ZM28.5938 8.05078C28.6068 7.80339 28.6979 7.62109 28.8672 7.50391C29.0365 7.3737 29.2188 7.30859 29.4141 7.30859C29.6094 7.30859 29.7786 7.3737 29.9219 7.50391C30.0781 7.62109 30.1497 7.80339 30.1367 8.05078C30.1367 8.12891 30.1302 8.21354 30.1172 8.30469C30.1172 8.38281 30.1172 8.46094 30.1172 8.53906C30.5339 8.33073 30.9701 8.15495 31.4258 8.01172C31.8945 7.85547 32.3568 7.75781 32.8125 7.71875C33.2812 7.67969 33.7305 7.71875 34.1602 7.83594C34.6029 7.9401 35.0065 8.14844 35.3711 8.46094C35.5534 8.63021 35.6315 8.8125 35.6055 9.00781C35.5924 9.20312 35.5143 9.3724 35.3711 9.51562C35.2409 9.64583 35.0716 9.73047 34.8633 9.76953C34.6549 9.79557 34.4531 9.73047 34.2578 9.57422C34.1146 9.45703 33.9518 9.3724 33.7695 9.32031C33.6003 9.26823 33.4115 9.2487 33.2031 9.26172C33.0078 9.26172 32.806 9.28125 32.5977 9.32031C32.4023 9.35938 32.2135 9.40495 32.0312 9.45703C31.3411 9.67839 30.6966 9.97135 30.0977 10.3359C30.1237 10.974 30.1628 11.612 30.2148 12.25C30.2669 12.7839 30.3125 13.3372 30.3516 13.9102C30.3906 14.4701 30.5013 15.0039 30.6836 15.5117C30.7617 15.7461 30.7422 15.9414 30.625 16.0977C30.5208 16.2669 30.3711 16.3776 30.1758 16.4297C29.9935 16.4818 29.7982 16.4688 29.5898 16.3906C29.3945 16.3125 29.2578 16.1562 29.1797 15.9219C29.0755 15.6224 29.0039 15.3164 28.9648 15.0039C28.9258 14.6914 28.8867 14.3789 28.8477 14.0664C28.8216 13.7669 28.7891 13.4674 28.75 13.168C28.724 12.8555 28.6979 12.5495 28.6719 12.25C28.6068 11.5469 28.5612 10.8503 28.5352 10.1602C28.5221 9.45703 28.5417 8.75391 28.5938 8.05078ZM37.0898 8.42188C37.3372 8.08333 37.6302 7.78385 37.9688 7.52344C38.3203 7.26302 38.6914 7.0612 39.082 6.91797C39.4727 6.76172 39.8763 6.68359 40.293 6.68359C40.7096 6.67057 41.1263 6.7487 41.543 6.91797C41.9466 7.07422 42.3112 7.28906 42.6367 7.5625C42.9622 7.82292 43.2161 8.16146 43.3984 8.57812C43.5417 8.89062 43.6263 9.22917 43.6523 9.59375C43.6784 9.95833 43.5807 10.2904 43.3594 10.5898C43.1641 10.8633 42.9232 11.0716 42.6367 11.2148C42.3633 11.3581 42.0638 11.4622 41.7383 11.5273C41.4258 11.5924 41.1003 11.625 40.7617 11.625C40.4362 11.625 40.1237 11.6185 39.8242 11.6055C39.4857 11.5924 39.1471 11.5664 38.8086 11.5273C38.4831 11.4883 38.151 11.4492 37.8125 11.4102C37.9167 11.9961 38.125 12.5169 38.4375 12.9727C38.75 13.4284 39.1732 13.7734 39.707 14.0078C39.8503 14.0599 39.9609 14.099 40.0391 14.125C40.0781 14.138 40.1107 14.151 40.1367 14.1641C40.1758 14.1641 40.2148 14.1641 40.2539 14.1641C40.3581 14.1771 40.4427 14.1901 40.5078 14.2031C40.5859 14.2031 40.6576 14.1966 40.7227 14.1836C40.8138 14.1706 40.8724 14.1641 40.8984 14.1641C40.9375 14.151 40.9766 14.138 41.0156 14.125C41.1589 14.0859 41.2826 14.0404 41.3867 13.9883C41.5039 13.9362 41.6406 13.8516 41.7969 13.7344C41.875 13.6693 41.9792 13.5716 42.1094 13.4414C42.2396 13.3112 42.3503 13.194 42.4414 13.0898C42.5716 12.9076 42.7279 12.7839 42.9102 12.7188C43.1055 12.6536 43.3008 12.6797 43.4961 12.7969C43.6654 12.901 43.7826 13.0638 43.8477 13.2852C43.9258 13.4935 43.8997 13.6888 43.7695 13.8711C43.3919 14.3789 42.9427 14.8151 42.4219 15.1797C41.9141 15.5312 41.3281 15.7201 40.6641 15.7461C40.1302 15.7721 39.6159 15.681 39.1211 15.4727C38.6263 15.2513 38.1901 14.9583 37.8125 14.5938C37.3438 14.138 36.9727 13.6107 36.6992 13.0117C36.4258 12.4128 36.276 11.8008 36.25 11.1758C36.1328 11.0846 36.0417 10.974 35.9766 10.8438C35.9245 10.7005 35.9049 10.5573 35.918 10.4141C35.944 10.2708 35.9961 10.1406 36.0742 10.0234C36.1523 9.89323 36.2695 9.80859 36.4258 9.76953C36.569 9.28776 36.7904 8.83854 37.0898 8.42188ZM41.7773 8.89062C41.6341 8.70833 41.4128 8.54557 41.1133 8.40234C40.8659 8.29818 40.5729 8.24609 40.2344 8.24609C39.9089 8.24609 39.6289 8.30469 39.3945 8.42188C39.0951 8.5651 38.8281 8.76693 38.5938 9.02734C38.3594 9.27474 38.1706 9.55469 38.0273 9.86719C38.3398 9.90625 38.6523 9.94531 38.9648 9.98438C39.2773 10.0234 39.5898 10.0495 39.9023 10.0625C40.0716 10.0625 40.2409 10.0625 40.4102 10.0625C40.5794 10.0625 40.7487 10.056 40.918 10.043C40.9701 10.043 41.0156 10.043 41.0547 10.043C41.1068 10.0299 41.1589 10.0234 41.2109 10.0234C41.3281 9.9974 41.4128 9.98438 41.4648 9.98438C41.5299 9.97135 41.5951 9.95182 41.6602 9.92578C41.7122 9.91276 41.7773 9.89323 41.8555 9.86719C41.9206 9.84115 41.9596 9.82161 41.9727 9.80859C41.9857 9.79557 42.0052 9.78255 42.0312 9.76953L42.0898 9.53516C42.0638 9.48307 42.0443 9.4375 42.0312 9.39844C42.0312 9.34635 42.0182 9.30078 41.9922 9.26172C41.9792 9.22266 41.9466 9.16406 41.8945 9.08594C41.8555 9.00781 41.8164 8.94271 41.7773 8.89062ZM46.4844 0.667969C46.7188 0.667969 46.901 0.746094 47.0312 0.902344C47.1615 1.05859 47.2396 1.24089 47.2656 1.44922C47.3958 2.6862 47.4674 3.92318 47.4805 5.16016C47.4935 6.39714 47.474 7.63411 47.4219 8.87109C47.3828 10.1081 47.3177 11.3451 47.2266 12.582C47.1354 13.819 47.0443 15.0495 46.9531 16.2734C46.9271 16.4948 46.8424 16.6771 46.6992 16.8203C46.569 16.9766 46.3932 17.0547 46.1719 17.0547C45.9766 17.0547 45.7943 16.9766 45.625 16.8203C45.4557 16.6771 45.3776 16.4948 45.3906 16.2734C45.4818 15.0495 45.5729 13.819 45.6641 12.582C45.7682 11.3451 45.8398 10.1081 45.8789 8.87109C45.931 7.63411 45.9505 6.39714 45.9375 5.16016C45.9245 3.92318 45.8529 2.6862 45.7227 1.44922C45.6966 1.24089 45.7682 1.05859 45.9375 0.902344C46.1068 0.746094 46.2891 0.667969 46.4844 0.667969ZM50.8789 15.4727C50.4362 15.2773 50.0846 15.0104 49.8242 14.6719C49.5768 14.3203 49.401 13.9362 49.2969 13.5195C49.2057 13.1029 49.1797 12.6732 49.2188 12.2305C49.2578 11.7747 49.349 11.3385 49.4922 10.9219C49.6094 10.5964 49.7396 10.2578 49.8828 9.90625C50.0391 9.55469 50.2214 9.22917 50.4297 8.92969C50.638 8.63021 50.8854 8.3763 51.1719 8.16797C51.4583 7.94661 51.7969 7.80339 52.1875 7.73828C52.5911 7.67318 52.9948 7.65365 53.3984 7.67969C53.8151 7.69271 54.2253 7.73177 54.6289 7.79688C54.8112 7.82292 54.987 7.86849 55.1562 7.93359C55.3255 7.98568 55.4948 8.04427 55.6641 8.10938C55.6771 7.91406 55.7617 7.7513 55.918 7.62109C56.0872 7.49089 56.263 7.42578 56.4453 7.42578C56.6667 7.42578 56.8424 7.50391 56.9727 7.66016C57.1159 7.80339 57.2005 7.97917 57.2266 8.1875C57.2917 8.78646 57.3177 9.38542 57.3047 9.98438C57.3047 10.5833 57.2852 11.1823 57.2461 11.7812C57.2201 12.3802 57.194 12.9792 57.168 13.5781C57.1549 14.1771 57.1615 14.776 57.1875 15.375C57.2005 15.6224 57.1224 15.8112 56.9531 15.9414C56.7969 16.0586 56.6211 16.1172 56.4258 16.1172C56.2305 16.1172 56.0482 16.0586 55.8789 15.9414C55.7227 15.8112 55.638 15.6224 55.625 15.375C54.8828 15.6875 54.0951 15.8698 53.2617 15.9219C52.4284 15.9609 51.6341 15.8112 50.8789 15.4727ZM51.0156 11.2344C50.9375 11.4688 50.8659 11.7357 50.8008 12.0352C50.7357 12.3346 50.7161 12.6211 50.7422 12.8945C50.7682 13.168 50.8529 13.4219 50.9961 13.6562C51.1393 13.8776 51.3737 14.0339 51.6992 14.125C52.3633 14.3333 53.0273 14.3919 53.6914 14.3008C54.3685 14.2096 55 13.9753 55.5859 13.5977C55.638 12.9596 55.6771 12.3411 55.7031 11.7422C55.7422 11.1432 55.7552 10.5378 55.7422 9.92578C55.5208 9.78255 55.293 9.65885 55.0586 9.55469C54.8372 9.4375 54.5898 9.35938 54.3164 9.32031C54.043 9.28125 53.75 9.25521 53.4375 9.24219C53.138 9.21615 52.8451 9.21615 52.5586 9.24219C52.5326 9.24219 52.4609 9.26172 52.3438 9.30078C52.2396 9.32682 52.181 9.34635 52.168 9.35938C52.0378 9.42448 51.9206 9.52865 51.8164 9.67188C51.6471 9.90625 51.4974 10.1602 51.3672 10.4336C51.237 10.694 51.1198 10.9609 51.0156 11.2344ZM59.9219 11.6641C59.5833 11.4167 59.3424 11.1107 59.1992 10.7461C59.056 10.3685 59.0495 9.97135 59.1797 9.55469C59.3099 9.17708 59.5117 8.83854 59.7852 8.53906C60.0586 8.23958 60.3711 7.9987 60.7227 7.81641C61.1133 7.60807 61.5299 7.44531 61.9727 7.32812C62.4154 7.21094 62.8646 7.14583 63.3203 7.13281C63.776 7.11979 64.2253 7.16536 64.668 7.26953C65.1237 7.36068 65.5534 7.51042 65.957 7.71875C66.1784 7.83594 66.3021 7.99219 66.3281 8.1875C66.3542 8.38281 66.3151 8.5651 66.2109 8.73438C66.1198 8.90365 65.9766 9.02734 65.7812 9.10547C65.5859 9.18359 65.3776 9.16406 65.1562 9.04688C64.8438 8.8776 64.4922 8.76693 64.1016 8.71484C63.7109 8.66276 63.3138 8.66276 62.9102 8.71484C62.5195 8.75391 62.1484 8.85156 61.7969 9.00781C61.4453 9.16406 61.1523 9.36589 60.918 9.61328C60.8529 9.67839 60.8073 9.72396 60.7812 9.75C60.7682 9.77604 60.7422 9.83464 60.7031 9.92578L60.6641 10.1406C60.7031 10.2578 60.7357 10.3294 60.7617 10.3555C61.0221 10.5247 61.2891 10.6354 61.5625 10.6875C61.849 10.7266 62.1354 10.7526 62.4219 10.7656C62.8255 10.7917 63.2357 10.8177 63.6523 10.8438C64.082 10.8568 64.4922 10.9089 64.8828 11C65.2865 11.0911 65.6576 11.2409 65.9961 11.4492C66.3346 11.6576 66.6211 11.9635 66.8555 12.3672C67.1159 12.8229 67.2331 13.2982 67.207 13.793C67.194 14.2747 67.0052 14.7109 66.6406 15.1016C66.276 15.4922 65.8529 15.7656 65.3711 15.9219C64.8893 16.0651 64.401 16.1693 63.9062 16.2344C63.4635 16.2865 63.0013 16.2995 62.5195 16.2734C62.0508 16.2474 61.5951 16.1693 61.1523 16.0391C60.7227 15.9219 60.319 15.7396 59.9414 15.4922C59.5638 15.2318 59.2513 14.8932 59.0039 14.4766C58.8867 14.2682 58.8672 14.0729 58.9453 13.8906C59.0234 13.6953 59.1406 13.5521 59.2969 13.4609C59.4661 13.3568 59.6484 13.3177 59.8438 13.3438C60.0521 13.3698 60.2214 13.487 60.3516 13.6953C60.5339 13.9948 60.7878 14.2227 61.1133 14.3789C61.4388 14.5352 61.7904 14.6458 62.168 14.7109C62.5586 14.763 62.9492 14.776 63.3398 14.75C63.7305 14.7109 64.082 14.6589 64.3945 14.5938C64.5638 14.5547 64.7331 14.5026 64.9023 14.4375C65.0846 14.3594 65.2344 14.2682 65.3516 14.1641C65.4818 14.0599 65.5729 13.9427 65.625 13.8125C65.6771 13.6693 65.6706 13.513 65.6055 13.3438C65.4753 13.0182 65.2539 12.7839 64.9414 12.6406C64.6419 12.4974 64.3229 12.4128 63.9844 12.3867C63.6458 12.3607 63.3008 12.3477 62.9492 12.3477C62.5977 12.3477 62.2461 12.3346 61.8945 12.3086C61.543 12.2695 61.1979 12.2044 60.8594 12.1133C60.5208 12.0221 60.2083 11.8724 59.9219 11.6641ZM76.9727 8.87109C77.4414 8.58464 77.9427 8.33724 78.4766 8.12891C79.0234 7.92057 79.5768 7.82292 80.1367 7.83594C80.0846 6.72917 80.0391 5.62891 80 4.53516C79.974 3.44141 79.9544 2.34115 79.9414 1.23438C79.9414 0.986979 80.0195 0.804688 80.1758 0.6875C80.332 0.557292 80.5078 0.492188 80.7031 0.492188C80.8984 0.492188 81.0742 0.557292 81.2305 0.6875C81.3997 0.804688 81.4844 0.986979 81.4844 1.23438C81.4974 2.52344 81.5299 3.81901 81.582 5.12109C81.6341 6.41016 81.6862 7.69922 81.7383 8.98828C81.7904 10.2773 81.8294 11.5729 81.8555 12.875C81.8815 14.1641 81.875 15.4531 81.8359 16.7422C81.8229 16.9896 81.7318 17.1784 81.5625 17.3086C81.3932 17.4388 81.2109 17.5039 81.0156 17.5039C80.8203 17.5039 80.6445 17.4388 80.4883 17.3086C80.332 17.1914 80.2604 17.0026 80.2734 16.7422C80.2734 16.651 80.2734 16.5599 80.2734 16.4688C80.2734 16.3776 80.2799 16.2865 80.293 16.1953C80.1628 16.1823 80.0326 16.1693 79.9023 16.1562C79.7852 16.1562 79.668 16.1562 79.5508 16.1562C79.3945 16.1562 79.2383 16.1562 79.082 16.1562C78.9258 16.1562 78.776 16.1497 78.6328 16.1367C78.2943 16.1107 77.9557 16.0781 77.6172 16.0391C77.2786 16 76.9466 15.9219 76.6211 15.8047C76.2956 15.6745 75.9896 15.5182 75.7031 15.3359C75.4167 15.1406 75.1823 14.8867 75 14.5742C74.7917 14.2487 74.6159 13.8971 74.4727 13.5195C74.3424 13.1419 74.2904 12.7513 74.3164 12.3477C74.3424 11.944 74.4336 11.5729 74.5898 11.2344C74.7461 10.8958 74.9414 10.5833 75.1758 10.2969C75.4232 10.0104 75.6966 9.75 75.9961 9.51562C76.3086 9.28125 76.6341 9.06641 76.9727 8.87109ZM80.3125 14.6523C80.3125 12.9076 80.2734 11.1562 80.1953 9.39844C79.7656 9.3724 79.3359 9.45052 78.9062 9.63281C78.4896 9.80208 78.1055 9.9974 77.7539 10.2188C77.5586 10.3359 77.3438 10.4727 77.1094 10.6289C76.888 10.7721 76.6797 10.9414 76.4844 11.1367C76.3021 11.319 76.1523 11.5208 76.0352 11.7422C75.918 11.9635 75.8594 12.2044 75.8594 12.4648C75.8724 12.6992 75.9245 12.9531 76.0156 13.2266C76.1068 13.487 76.2305 13.7018 76.3867 13.8711C76.543 14.0404 76.7188 14.1706 76.9141 14.2617C77.1094 14.3398 77.3177 14.4049 77.5391 14.457C77.7995 14.5091 78.0469 14.5417 78.2812 14.5547C78.5286 14.5677 78.7826 14.5807 79.043 14.5938C79.2513 14.5938 79.4596 14.6068 79.668 14.6328C79.8763 14.6458 80.0911 14.6523 80.3125 14.6523ZM88.6133 6.99609C89.0299 6.94401 89.4661 6.93099 89.9219 6.95703C90.3776 6.97005 90.8138 7.04818 91.2305 7.19141C91.6471 7.32161 92.0247 7.52344 92.3633 7.79688C92.7018 8.07031 92.9622 8.42839 93.1445 8.87109C93.2747 9.18359 93.3398 9.5026 93.3398 9.82812C93.3529 10.1406 93.3073 10.4466 93.2031 10.7461C93.112 11.0326 92.9688 11.3125 92.7734 11.5859C92.5911 11.8464 92.3763 12.0872 92.1289 12.3086C91.5951 12.7904 91.0091 13.2005 90.3711 13.5391C89.7331 13.8776 89.0625 14.138 88.3594 14.3203C88.0599 14.3984 87.7474 14.4701 87.4219 14.5352C87.1094 14.5872 86.7904 14.6133 86.4648 14.6133C86.1393 14.6133 85.8203 14.5807 85.5078 14.5156C85.1953 14.4375 84.9023 14.3138 84.6289 14.1445C84.4336 14.0273 84.3164 13.8711 84.2773 13.6758C84.1992 13.4544 84.1146 13.2461 84.0234 13.0508C83.9323 12.8555 83.8411 12.6536 83.75 12.4453C83.6719 12.237 83.6068 12.0286 83.5547 11.8203C83.5026 11.612 83.4766 11.3971 83.4766 11.1758C83.4766 10.7331 83.5677 10.3164 83.75 9.92578C83.9453 9.52214 84.2057 9.17057 84.5312 8.87109C85.0781 8.35026 85.7096 7.93359 86.4258 7.62109C87.1419 7.30859 87.8711 7.10026 88.6133 6.99609ZM90.8203 8.67578C90.4688 8.54557 90.0911 8.48047 89.6875 8.48047C89.2578 8.46745 88.8281 8.51302 88.3984 8.61719C87.9688 8.70833 87.5586 8.83854 87.168 9.00781C86.8034 9.15104 86.4258 9.35286 86.0352 9.61328C85.6576 9.86068 85.3776 10.1667 85.1953 10.5312C85.0911 10.7266 85.0391 10.9284 85.0391 11.1367C85.0521 11.332 85.0846 11.5339 85.1367 11.7422C85.2018 11.9375 85.2799 12.1393 85.3711 12.3477C85.4753 12.543 85.5664 12.7383 85.6445 12.9336C85.8529 12.9857 85.9831 13.0117 86.0352 13.0117C86.0612 13.0247 86.0938 13.0312 86.1328 13.0312C86.1719 13.0312 86.2044 13.0312 86.2305 13.0312C86.4909 13.0573 86.7253 13.0508 86.9336 13.0117C87.0768 13.0117 87.2591 12.9857 87.4805 12.9336C87.819 12.8685 88.1445 12.7839 88.457 12.6797C88.7695 12.5625 89.056 12.4388 89.3164 12.3086C89.6159 12.1654 89.9089 12.0091 90.1953 11.8398C90.4818 11.6706 90.7227 11.4948 90.918 11.3125C91.0482 11.1953 91.1719 11.0716 91.2891 10.9414C91.3542 10.8763 91.3997 10.8242 91.4258 10.7852C91.4909 10.694 91.543 10.6289 91.582 10.5898C91.6211 10.5378 91.6536 10.4792 91.6797 10.4141C91.7318 10.3229 91.7578 10.2513 91.7578 10.1992C91.7708 10.1732 91.7773 10.1406 91.7773 10.1016C91.7904 10.0625 91.8034 10.0299 91.8164 10.0039V9.78906C91.8034 9.73698 91.7969 9.69792 91.7969 9.67188C91.7969 9.64583 91.7904 9.61979 91.7773 9.59375C91.7383 9.5026 91.6992 9.4375 91.6602 9.39844C91.6341 9.34635 91.6016 9.29427 91.5625 9.24219C91.5755 9.25521 91.556 9.23568 91.5039 9.18359C91.4648 9.13151 91.4388 9.09896 91.4258 9.08594L91.2695 8.92969C91.2044 8.89062 91.1328 8.84505 91.0547 8.79297C90.9766 8.74089 90.8984 8.70182 90.8203 8.67578ZM101.992 15.7461C101.992 15.9935 101.908 16.1758 101.738 16.293C101.582 16.4232 101.406 16.4883 101.211 16.4883C101.016 16.4883 100.84 16.4232 100.684 16.293C100.527 16.1758 100.449 15.9935 100.449 15.7461C100.449 14.7305 100.566 13.7539 100.801 12.8164C101.035 11.8789 101.328 10.9479 101.68 10.0234C101.589 9.85417 101.562 9.66536 101.602 9.45703C101.68 9.18359 101.849 9.01432 102.109 8.94922C102.37 8.32422 102.637 7.70573 102.91 7.09375C103.197 6.46875 103.47 5.84375 103.73 5.21875C103.991 4.59375 104.232 3.96224 104.453 3.32422C104.674 2.6862 104.857 2.03516 105 1.37109C105.039 1.17578 105.117 1.00651 105.234 0.863281C105.365 0.720052 105.54 0.648438 105.762 0.648438C105.97 0.648438 106.159 0.726562 106.328 0.882812C106.497 1.02604 106.569 1.20833 106.543 1.42969C106.504 2.1849 106.517 2.88151 106.582 3.51953C106.647 4.14453 106.745 4.76953 106.875 5.39453C107.005 6.00651 107.148 6.625 107.305 7.25C107.474 7.86198 107.63 8.47396 107.773 9.08594C107.917 9.67188 108.047 10.2578 108.164 10.8438C108.281 11.4297 108.47 11.9961 108.73 12.543C108.861 12.8164 108.997 13.0833 109.141 13.3438C109.284 13.5911 109.44 13.8451 109.609 14.1055C109.766 14.3398 109.909 14.5872 110.039 14.8477C110.169 15.0951 110.26 15.3685 110.312 15.668C110.339 15.8763 110.306 16.0716 110.215 16.2539C110.137 16.4362 109.987 16.5599 109.766 16.625C109.583 16.6771 109.388 16.651 109.18 16.5469C108.971 16.4427 108.848 16.2865 108.809 16.0781C108.757 15.7786 108.652 15.5117 108.496 15.2773C108.353 15.043 108.203 14.8021 108.047 14.5547C107.865 14.2682 107.695 13.9818 107.539 13.6953C107.396 13.3958 107.266 13.0898 107.148 12.7773C107.018 12.4518 106.908 12.1263 106.816 11.8008C106.725 11.4622 106.641 11.1237 106.562 10.7852C105.977 10.7461 105.397 10.7201 104.824 10.707C104.264 10.681 103.698 10.6354 103.125 10.5703C102.812 11.4036 102.546 12.25 102.324 13.1094C102.116 13.9688 102.005 14.8477 101.992 15.7461ZM103.828 8.83203C103.802 8.87109 103.783 8.91667 103.77 8.96875C103.77 9.00781 103.757 9.04688 103.73 9.08594C104.147 9.125 104.557 9.15104 104.961 9.16406C105.365 9.16406 105.775 9.17708 106.191 9.20312C106.048 8.57812 105.892 7.95964 105.723 7.34766C105.566 6.72266 105.423 6.09115 105.293 5.45312C105.059 6.02604 104.818 6.59245 104.57 7.15234C104.323 7.69922 104.076 8.25911 103.828 8.83203ZM113.184 16.2539C113.001 16.319 112.799 16.2995 112.578 16.1953C112.37 16.0911 112.253 15.9349 112.227 15.7266C112.044 14.5807 111.927 13.4479 111.875 12.3281C111.836 11.1953 111.816 10.056 111.816 8.91016C111.816 8.71484 111.868 8.55859 111.973 8.44141C112.077 8.32422 112.201 8.24609 112.344 8.20703C112.487 8.16797 112.637 8.16146 112.793 8.1875C112.949 8.21354 113.079 8.27865 113.184 8.38281C113.483 8.13542 113.802 7.92057 114.141 7.73828C114.479 7.55599 114.818 7.4388 115.156 7.38672C115.508 7.32161 115.853 7.34115 116.191 7.44531C116.53 7.53646 116.849 7.73828 117.148 8.05078C117.396 8.3112 117.611 8.59115 117.793 8.89062C117.975 9.17708 118.138 9.48307 118.281 9.80859C118.477 9.3138 118.75 8.85807 119.102 8.44141C119.453 8.02474 119.902 7.74479 120.449 7.60156C120.853 7.4974 121.172 7.52344 121.406 7.67969C121.641 7.82292 121.862 8.05078 122.07 8.36328C122.292 8.6888 122.493 9.02083 122.676 9.35938C122.871 9.69792 123.053 10.043 123.223 10.3945C123.392 10.7461 123.555 11.0977 123.711 11.4492C123.867 11.8008 124.023 12.1458 124.18 12.4844C124.362 12.862 124.518 13.2396 124.648 13.6172C124.792 13.9818 124.883 14.3724 124.922 14.7891C124.948 15.0104 124.87 15.1992 124.688 15.3555C124.518 15.4987 124.336 15.5703 124.141 15.5703C123.919 15.5703 123.737 15.4987 123.594 15.3555C123.464 15.1992 123.385 15.0104 123.359 14.7891C123.333 14.4766 123.249 14.1771 123.105 13.8906C122.975 13.5911 122.845 13.2982 122.715 13.0117C122.572 12.7122 122.428 12.4062 122.285 12.0938C122.155 11.7812 122.018 11.4753 121.875 11.1758C121.732 10.8763 121.576 10.5768 121.406 10.2773C121.25 9.97786 121.081 9.6849 120.898 9.39844C120.872 9.35938 120.846 9.32031 120.82 9.28125C120.794 9.24219 120.768 9.20312 120.742 9.16406C120.482 9.30729 120.293 9.44401 120.176 9.57422C120.059 9.70443 119.948 9.88021 119.844 10.1016C119.753 10.2969 119.674 10.5052 119.609 10.7266C119.557 10.9349 119.512 11.1497 119.473 11.3711C119.395 11.7878 119.336 12.224 119.297 12.6797C119.271 13.0182 119.271 13.3438 119.297 13.6562C119.336 13.9688 119.323 14.2943 119.258 14.6328C119.219 14.8411 119.095 14.9974 118.887 15.1016C118.691 15.2057 118.496 15.2318 118.301 15.1797C118.118 15.1276 117.982 15.0365 117.891 14.9062C117.812 14.763 117.76 14.6003 117.734 14.418C117.682 14.0013 117.624 13.5716 117.559 13.1289C117.493 12.6862 117.409 12.25 117.305 11.8203C117.201 11.3776 117.064 10.9544 116.895 10.5508C116.738 10.1341 116.53 9.75 116.27 9.39844C116.087 9.16406 115.898 9.00781 115.703 8.92969C115.521 8.85156 115.293 8.88411 115.02 9.02734C114.72 9.18359 114.427 9.3724 114.141 9.59375C113.854 9.8151 113.6 10.0625 113.379 10.3359C113.392 11.1693 113.418 12.0026 113.457 12.8359C113.509 13.6562 113.6 14.4766 113.73 15.2969C113.757 15.5182 113.724 15.7201 113.633 15.9023C113.555 16.0716 113.405 16.1888 113.184 16.2539ZM127.52 15.4727C127.077 15.2773 126.725 15.0104 126.465 14.6719C126.217 14.3203 126.042 13.9362 125.938 13.5195C125.846 13.1029 125.82 12.6732 125.859 12.2305C125.898 11.7747 125.99 11.3385 126.133 10.9219C126.25 10.5964 126.38 10.2578 126.523 9.90625C126.68 9.55469 126.862 9.22917 127.07 8.92969C127.279 8.63021 127.526 8.3763 127.812 8.16797C128.099 7.94661 128.438 7.80339 128.828 7.73828C129.232 7.67318 129.635 7.65365 130.039 7.67969C130.456 7.69271 130.866 7.73177 131.27 7.79688C131.452 7.82292 131.628 7.86849 131.797 7.93359C131.966 7.98568 132.135 8.04427 132.305 8.10938C132.318 7.91406 132.402 7.7513 132.559 7.62109C132.728 7.49089 132.904 7.42578 133.086 7.42578C133.307 7.42578 133.483 7.50391 133.613 7.66016C133.757 7.80339 133.841 7.97917 133.867 8.1875C133.932 8.78646 133.958 9.38542 133.945 9.98438C133.945 10.5833 133.926 11.1823 133.887 11.7812C133.861 12.3802 133.835 12.9792 133.809 13.5781C133.796 14.1771 133.802 14.776 133.828 15.375C133.841 15.6224 133.763 15.8112 133.594 15.9414C133.438 16.0586 133.262 16.1172 133.066 16.1172C132.871 16.1172 132.689 16.0586 132.52 15.9414C132.363 15.8112 132.279 15.6224 132.266 15.375C131.523 15.6875 130.736 15.8698 129.902 15.9219C129.069 15.9609 128.275 15.8112 127.52 15.4727ZM127.656 11.2344C127.578 11.4688 127.507 11.7357 127.441 12.0352C127.376 12.3346 127.357 12.6211 127.383 12.8945C127.409 13.168 127.493 13.4219 127.637 13.6562C127.78 13.8776 128.014 14.0339 128.34 14.125C129.004 14.3333 129.668 14.3919 130.332 14.3008C131.009 14.2096 131.641 13.9753 132.227 13.5977C132.279 12.9596 132.318 12.3411 132.344 11.7422C132.383 11.1432 132.396 10.5378 132.383 9.92578C132.161 9.78255 131.934 9.65885 131.699 9.55469C131.478 9.4375 131.23 9.35938 130.957 9.32031C130.684 9.28125 130.391 9.25521 130.078 9.24219C129.779 9.21615 129.486 9.21615 129.199 9.24219C129.173 9.24219 129.102 9.26172 128.984 9.30078C128.88 9.32682 128.822 9.34635 128.809 9.35938C128.678 9.42448 128.561 9.52865 128.457 9.67188C128.288 9.90625 128.138 10.1602 128.008 10.4336C127.878 10.694 127.76 10.9609 127.656 11.2344ZM135.957 14.125C135.957 13.5651 135.996 12.9987 136.074 12.4258C136.165 11.7357 136.257 11.0521 136.348 10.375C136.439 9.6849 136.478 8.98828 136.465 8.28516C136.465 8.03776 136.543 7.84896 136.699 7.71875C136.855 7.58854 137.031 7.52344 137.227 7.52344C137.422 7.52344 137.604 7.58854 137.773 7.71875C137.943 7.84896 138.027 8.03776 138.027 8.28516C138.535 8.24609 139.017 8.22656 139.473 8.22656C139.993 8.23958 140.436 8.38932 140.801 8.67578C141.165 8.96224 141.439 9.34635 141.621 9.82812C141.777 10.2708 141.868 10.7266 141.895 11.1953C141.921 11.6641 141.94 12.1328 141.953 12.6016C141.966 13.2656 141.986 13.9297 142.012 14.5938C142.038 15.2448 142.051 15.9023 142.051 16.5664C142.051 16.8268 141.966 17.0156 141.797 17.1328C141.641 17.263 141.465 17.3281 141.27 17.3281C141.087 17.3281 140.911 17.263 140.742 17.1328C140.586 17.0156 140.508 16.8268 140.508 16.5664C140.508 15.9414 140.495 15.3294 140.469 14.7305C140.456 14.1315 140.436 13.5195 140.41 12.8945C140.384 12.556 140.371 12.2109 140.371 11.8594C140.384 11.4948 140.358 11.1628 140.293 10.8633C140.254 10.681 140.215 10.5247 140.176 10.3945C140.137 10.2513 140.065 10.1146 139.961 9.98438C139.935 9.93229 139.876 9.88672 139.785 9.84766C139.707 9.80859 139.635 9.78906 139.57 9.78906C139.375 9.78906 139.193 9.80208 139.023 9.82812C138.854 9.85417 138.678 9.89323 138.496 9.94531C138.418 9.97135 138.34 9.9974 138.262 10.0234C138.184 10.0495 138.112 10.082 138.047 10.1211C137.917 10.5898 137.819 11.0391 137.754 11.4688C137.702 11.8854 137.65 12.3086 137.598 12.7383C137.559 13.0508 137.533 13.3698 137.52 13.6953C137.52 14.0078 137.507 14.3203 137.48 14.6328C137.467 14.9453 137.428 15.2578 137.363 15.5703C137.311 15.8828 137.214 16.1823 137.07 16.4688C136.953 16.6901 136.797 16.8138 136.602 16.8398C136.406 16.8789 136.224 16.8464 136.055 16.7422C135.898 16.651 135.775 16.5078 135.684 16.3125C135.605 16.1172 135.618 15.9089 135.723 15.6875C135.84 15.4531 135.905 15.1992 135.918 14.9258C135.931 14.6523 135.944 14.3854 135.957 14.125ZM144.238 15.6094C144.056 15.5443 143.9 15.4206 143.77 15.2383C143.652 15.043 143.633 14.8477 143.711 14.6523C143.932 14.0404 144.082 13.4219 144.16 12.7969C144.238 12.1719 144.29 11.5339 144.316 10.8828C144.329 10.6875 144.336 10.4987 144.336 10.3164C144.336 10.1211 144.342 9.92578 144.355 9.73047C144.316 9.57422 144.329 9.42448 144.395 9.28125C144.421 8.90365 144.447 8.52604 144.473 8.14844C144.499 7.75781 144.538 7.3737 144.59 6.99609C144.655 6.42318 144.72 5.85677 144.785 5.29688C144.863 4.72396 144.915 4.14453 144.941 3.55859C144.967 3.02474 144.993 2.4974 145.02 1.97656C145.059 1.44271 145.195 0.934896 145.43 0.453125C145.547 0.231771 145.703 0.108073 145.898 0.0820312C146.094 0.0429688 146.276 0.0755208 146.445 0.179688C146.615 0.270833 146.738 0.414062 146.816 0.609375C146.908 0.804688 146.895 1.01302 146.777 1.23438C146.673 1.45573 146.602 1.68359 146.562 1.91797C146.523 2.15234 146.497 2.39323 146.484 2.64062C146.484 2.88802 146.484 3.13542 146.484 3.38281C146.484 3.63021 146.478 3.87109 146.465 4.10547C146.4 4.69141 146.335 5.27734 146.27 5.86328C146.204 6.4362 146.139 7.01562 146.074 7.60156C146.621 7.32812 147.227 7.17839 147.891 7.15234C148.411 7.13932 148.939 7.23047 149.473 7.42578C150.02 7.60807 150.462 7.90755 150.801 8.32422C150.996 8.57161 151.152 8.84505 151.27 9.14453C151.387 9.43099 151.478 9.73698 151.543 10.0625C151.621 10.375 151.673 10.694 151.699 11.0195C151.725 11.332 151.751 11.638 151.777 11.9375C151.816 12.5495 151.829 13.1615 151.816 13.7734C151.816 14.3724 151.803 14.9844 151.777 15.6094C151.777 15.8568 151.693 16.0391 151.523 16.1562C151.354 16.2865 151.172 16.3516 150.977 16.3516C150.781 16.3516 150.605 16.2865 150.449 16.1562C150.293 16.0391 150.221 15.8568 150.234 15.6094C150.247 15.0885 150.26 14.5677 150.273 14.0469C150.286 13.526 150.28 13.0052 150.254 12.4844C150.228 12.224 150.208 11.957 150.195 11.6836C150.182 11.4102 150.15 11.1367 150.098 10.8633C150.072 10.7331 150.046 10.6094 150.02 10.4922C150.007 10.362 149.98 10.2318 149.941 10.1016C149.928 9.9974 149.896 9.88672 149.844 9.76953C149.805 9.65234 149.779 9.58724 149.766 9.57422C149.74 9.53516 149.72 9.5026 149.707 9.47656C149.694 9.4375 149.674 9.39844 149.648 9.35938C149.531 9.22917 149.46 9.15755 149.434 9.14453C149.382 9.10547 149.336 9.07943 149.297 9.06641C149.258 9.04036 149.219 9.01432 149.18 8.98828C149.036 8.91016 148.874 8.84505 148.691 8.79297C148.509 8.74089 148.333 8.71484 148.164 8.71484C147.721 8.6888 147.305 8.76693 146.914 8.94922C146.536 9.13151 146.198 9.41146 145.898 9.78906C145.872 10.6875 145.827 11.5794 145.762 12.4648C145.697 13.3372 145.508 14.2031 145.195 15.0625C145.13 15.2578 145.007 15.4141 144.824 15.5312C144.655 15.6484 144.46 15.6745 144.238 15.6094ZM155 15.4727C154.557 15.2773 154.206 15.0104 153.945 14.6719C153.698 14.3203 153.522 13.9362 153.418 13.5195C153.327 13.1029 153.301 12.6732 153.34 12.2305C153.379 11.7747 153.47 11.3385 153.613 10.9219C153.73 10.5964 153.861 10.2578 154.004 9.90625C154.16 9.55469 154.342 9.22917 154.551 8.92969C154.759 8.63021 155.007 8.3763 155.293 8.16797C155.579 7.94661 155.918 7.80339 156.309 7.73828C156.712 7.67318 157.116 7.65365 157.52 7.67969C157.936 7.69271 158.346 7.73177 158.75 7.79688C158.932 7.82292 159.108 7.86849 159.277 7.93359C159.447 7.98568 159.616 8.04427 159.785 8.10938C159.798 7.91406 159.883 7.7513 160.039 7.62109C160.208 7.49089 160.384 7.42578 160.566 7.42578C160.788 7.42578 160.964 7.50391 161.094 7.66016C161.237 7.80339 161.322 7.97917 161.348 8.1875C161.413 8.78646 161.439 9.38542 161.426 9.98438C161.426 10.5833 161.406 11.1823 161.367 11.7812C161.341 12.3802 161.315 12.9792 161.289 13.5781C161.276 14.1771 161.283 14.776 161.309 15.375C161.322 15.6224 161.243 15.8112 161.074 15.9414C160.918 16.0586 160.742 16.1172 160.547 16.1172C160.352 16.1172 160.169 16.0586 160 15.9414C159.844 15.8112 159.759 15.6224 159.746 15.375C159.004 15.6875 158.216 15.8698 157.383 15.9219C156.549 15.9609 155.755 15.8112 155 15.4727ZM155.137 11.2344C155.059 11.4688 154.987 11.7357 154.922 12.0352C154.857 12.3346 154.837 12.6211 154.863 12.8945C154.889 13.168 154.974 13.4219 155.117 13.6562C155.26 13.8776 155.495 14.0339 155.82 14.125C156.484 14.3333 157.148 14.3919 157.812 14.3008C158.49 14.2096 159.121 13.9753 159.707 13.5977C159.759 12.9596 159.798 12.3411 159.824 11.7422C159.863 11.1432 159.876 10.5378 159.863 9.92578C159.642 9.78255 159.414 9.65885 159.18 9.55469C158.958 9.4375 158.711 9.35938 158.438 9.32031C158.164 9.28125 157.871 9.25521 157.559 9.24219C157.259 9.21615 156.966 9.21615 156.68 9.24219C156.654 9.24219 156.582 9.26172 156.465 9.30078C156.361 9.32682 156.302 9.34635 156.289 9.35938C156.159 9.42448 156.042 9.52865 155.938 9.67188C155.768 9.90625 155.618 10.1602 155.488 10.4336C155.358 10.694 155.241 10.9609 155.137 11.2344ZM159.492 6C159.219 6.10417 158.932 6.13672 158.633 6.09766C158.346 6.04557 158.086 5.92839 157.852 5.74609C157.669 5.60286 157.493 5.44661 157.324 5.27734C157.155 5.09505 156.953 4.98438 156.719 4.94531C156.497 4.90625 156.283 4.94531 156.074 5.0625C155.879 5.17969 155.71 5.3099 155.566 5.45312C155.384 5.63542 155.189 5.71354 154.98 5.6875C154.785 5.66146 154.616 5.58333 154.473 5.45312C154.342 5.3099 154.258 5.14062 154.219 4.94531C154.193 4.73698 154.271 4.54167 154.453 4.35938C154.674 4.13802 154.922 3.94922 155.195 3.79297C155.469 3.63672 155.755 3.52604 156.055 3.46094C156.367 3.38281 156.673 3.36979 156.973 3.42188C157.285 3.46094 157.585 3.5651 157.871 3.73438C158.118 3.90365 158.333 4.08594 158.516 4.28125C158.581 4.34635 158.639 4.40495 158.691 4.45703C158.743 4.49609 158.802 4.52865 158.867 4.55469C158.945 4.56771 159.023 4.54818 159.102 4.49609C159.18 4.43099 159.258 4.35938 159.336 4.28125C159.414 4.1901 159.486 4.09896 159.551 4.00781C159.616 3.90365 159.668 3.82552 159.707 3.77344C159.85 3.60417 160.033 3.52604 160.254 3.53906C160.475 3.55208 160.658 3.63021 160.801 3.77344C160.97 3.92969 161.048 4.11198 161.035 4.32031C161.022 4.51562 160.944 4.69792 160.801 4.86719C160.618 5.08854 160.43 5.3099 160.234 5.53125C160.039 5.73958 159.792 5.89583 159.492 6Z" fill="#292524"/>
</svg>
